<?xml version="1.0" standalone="no"?>
<!DOCTYPE svg PUBLIC "-//W3C//DTD SVG 20010904//EN"
 "http://www.w3.org/TR/2001/REC-SVG-20010904/DTD/svg10.dtd">
<svg version="1.0" xmlns="http://www.w3.org/2000/svg"
 width="2560.000000pt" height="2560.000000pt" viewBox="0 0 2560.000000 2560.000000"
 preserveAspectRatio="xMidYMid meet">
<metadata>
Created by potrace 1.14, written by Peter Selinger 2001-2017
</metadata>
<g transform="translate(0.000000,2560.000000) scale(0.100000,-0.100000)"
fill="#000000" stroke="none">
<path d="M1676 25593 c-3 -3 -2 -12 1 -21 4 -10 2 -13 -5 -8 -7 4 -12 3 -12
-2 0 -5 -13 -12 -30 -15 -21 -5 -30 -12 -30 -27 0 -17 -6 -20 -46 -20 -47 0
-83 -14 -97 -36 -5 -9 -26 -14 -55 -14 -39 0 -49 -4 -57 -22 -7 -17 -20 -24
-48 -26 -21 -2 -41 -10 -44 -18 -3 -7 -9 -12 -13 -9 -4 3 -10 -2 -14 -10 -3
-8 -14 -15 -25 -15 -32 0 -51 -11 -51 -31 0 -14 -9 -18 -47 -21 -41 -3 -48 -6
-51 -25 -2 -16 -10 -23 -27 -23 -12 0 -33 -11 -46 -25 -13 -13 -29 -25 -36
-25 -6 0 -20 -11 -30 -23 -10 -13 -28 -29 -41 -36 -12 -6 -22 -18 -22 -25 0
-8 -11 -17 -25 -20 -15 -4 -25 -13 -25 -25 0 -10 -9 -21 -21 -24 -11 -3 -23
-15 -26 -26 -3 -12 -14 -21 -24 -21 -10 0 -21 -5 -24 -10 -4 -6 -10 -8 -15 -5
-5 3 -14 -4 -20 -15 -6 -11 -19 -20 -28 -20 -22 0 -42 -19 -42 -40 0 -20 -41
-60 -61 -60 -24 0 -39 -22 -39 -58 0 -24 -7 -40 -25 -54 -14 -11 -25 -23 -25
-28 0 -5 -11 -20 -25 -34 -19 -20 -25 -35 -25 -71 0 -37 -5 -51 -26 -70 -15
-14 -23 -26 -18 -26 5 -1 -4 -4 -21 -8 -20 -4 -31 -13 -33 -28 -2 -11 -12 -23
-23 -26 -10 -3 -22 -13 -26 -24 -4 -10 -15 -25 -25 -33 -13 -10 -21 -34 -25
-75 -4 -41 -12 -64 -24 -73 -10 -7 -21 -29 -24 -50 -11 -60 -16 -73 -27 -66
-7 5 -8 2 -3 -6 4 -7 2 -16 -6 -21 -10 -6 -15 -36 -17 -104 -3 -74 -7 -95 -18
-95 -25 0 -33 -46 -35 -195 0 -103 -4 -145 -12 -145 -9 0 -9 -2 0 -8 7 -4 11
-27 10 -54 -1 -26 -4 -45 -7 -43 -4 2 -7 -2 -7 -10 0 -8 4 -12 9 -9 4 3 8 1 8
-5 0 -5 -6 -12 -12 -14 -10 -4 -10 -6 0 -6 6 -1 12 -6 12 -12 0 -5 -6 -7 -12
-3 -11 6 -11 4 0 -7 6 -7 12 -18 12 -23 0 -6 -5 -4 -11 4 -9 12 -10 11 -6 -6
2 -12 -1 -21 -8 -21 -7 0 -11 7 -8 16 4 14 4 14 -6 1 -6 -8 -11 -48 -11 -89 0
-61 2 -72 14 -62 19 16 37 -9 34 -49 -2 -20 -10 -35 -23 -41 -19 -9 -19 -9 -2
4 14 12 15 16 3 20 -8 3 -17 3 -20 0 -3 -4 -6 -4762 -6 -10575 l0 -10568 25 0
c23 0 25 -3 23 -45 -1 -25 -5 -48 -9 -51 -4 -2 -5 -14 -2 -27 3 -12 9 -74 12
-137 6 -117 12 -140 35 -140 9 0 15 -19 18 -61 3 -48 9 -66 26 -80 12 -9 22
-24 22 -32 0 -19 32 -77 43 -77 4 0 7 -11 7 -25 0 -33 20 -75 37 -75 7 0 13
-9 13 -20 0 -12 9 -24 23 -29 18 -7 23 -18 25 -51 2 -28 11 -50 26 -67 13 -14
27 -39 30 -54 4 -21 11 -29 26 -29 14 0 20 -7 20 -23 0 -13 11 -34 24 -46 14
-13 26 -33 28 -45 2 -11 13 -25 26 -31 13 -6 22 -18 22 -32 0 -18 6 -23 25
-23 20 0 25 -5 25 -24 0 -15 7 -26 20 -29 11 -3 23 -12 26 -21 9 -23 156 -171
178 -179 10 -4 20 -16 23 -27 3 -13 14 -20 28 -20 17 0 25 -7 27 -22 2 -15 11
-24 26 -26 16 -2 22 -10 22 -27 0 -21 5 -24 43 -27 32 -2 44 -8 52 -26 5 -12
19 -22 30 -22 11 0 25 -10 30 -22 8 -18 20 -24 52 -26 34 -3 42 -7 45 -25 2
-15 11 -23 28 -25 56 -6 70 -13 70 -32 0 -17 7 -20 50 -20 28 0 50 -4 50 -10
0 -17 58 -40 100 -40 29 0 51 -8 74 -25 28 -21 43 -25 107 -25 86 0 119 -7
119 -25 0 -21 25 -25 141 -25 70 0 109 -4 109 -11 0 -5 5 -7 12 -3 8 5 9 1 5
-12 -7 -18 -6 -18 9 1 16 20 16 20 11 -3 -3 -12 -1 -20 4 -16 5 3 9 12 9 21 0
14 3 14 23 -3 12 -10 16 -12 9 -4 -17 20 -15 25 12 25 13 0 21 -4 18 -10 -3
-5 1 -4 9 2 19 16 829 17 829 1 0 -5 5 -6 12 -2 8 5 9 2 5 -9 -3 -9 -2 -19 4
-22 5 -4 9 -3 8 2 -3 20 2 34 11 28 6 -3 10 -2 10 3 0 16 104 10 118 -7 8 -9
11 -11 8 -5 -3 7 1 14 9 18 8 3 139 5 292 5 153 0 490 0 748 0 799 0 930 -1
942 -11 7 -5 14 -5 17 0 10 16 638 15 648 -1 6 -9 8 -9 8 1 0 6 5 12 11 12 5
0 7 -5 3 -12 -5 -7 -3 -8 7 -2 21 13 40 14 33 2 -5 -7 -2 -8 7 -2 15 10 55 12
334 14 302 2 327 1 319 -12 -5 -7 -3 -8 7 -2 21 13 39 14 39 1 0 -8 3 -7 9 2
6 9 11 10 15 2 4 -6 13 -8 19 -4 18 11 51 10 59 -2 5 -6 8 -5 8 4 0 11 3 11
17 0 10 -8 14 -9 10 -2 -8 12 22 11 43 -2 6 -3 10 -1 10 5 0 6 10 1 23 -12 12
-13 21 -22 19 -19 -1 2 5 12 13 21 12 13 31 16 97 13 46 -2 89 -5 96 -8 6 -2
12 -1 12 3 0 9 69 9 85 1 6 -3 19 -4 30 -2 67 9 86 10 91 1 3 -5 12 -4 20 3
11 9 14 8 14 -2 0 -12 2 -12 9 0 6 9 10 10 16 2 4 -7 12 -8 18 -3 13 9 46 10
62 1 9 -5 31 -5 38 1 8 6 36 7 32 0 -3 -5 3 -7 12 -5 10 2 18 4 18 5 0 1 25 3
57 4 35 0 54 -3 50 -9 -3 -5 2 -4 11 4 14 11 17 11 17 0 0 -11 2 -11 10 1 9
13 10 13 10 0 0 -9 3 -11 8 -5 10 14 43 16 35 1 -4 -6 0 -5 9 2 12 9 18 10 23
2 4 -6 12 -7 18 -2 15 10 27 10 46 -2 9 -6 12 -5 8 0 -3 5 10 9 28 9 18 0 31
-4 27 -9 -3 -5 1 -5 9 0 20 12 38 14 45 3 3 -6 11 -6 17 -1 15 10 27 10 46 -2
10 -6 12 -5 7 2 -5 9 42 12 176 13 101 0 203 1 228 1 77 1 144 -5 157 -14 7
-5 14 -5 18 2 5 8 10 8 20 0 9 -7 15 -7 19 -1 4 6 309 10 857 10 673 1 848 -2
843 -12 -6 -9 -5 -9 7 0 21 17 348 16 368 -1 11 -8 13 -8 8 0 -5 8 6 12 31 12
121 1 2082 2 2250 0 139 -1 202 -4 202 -12 0 -6 5 -4 10 4 7 11 10 11 10 2 0
-8 5 -10 12 -6 10 6 10 5 1 -8 -16 -19 -7 -28 29 -28 23 0 28 4 28 25 l0 25
163 1 c210 1 250 -1 264 -12 7 -7 14 -6 18 1 5 8 10 8 20 0 10 -8 15 -8 20 1
6 8 10 7 16 -2 5 -8 9 -9 9 -3 0 16 422 17 432 1 4 -7 8 -7 8 -2 0 11 61 12
78 1 6 -3 13 -2 16 2 3 5 130 10 283 11 332 3 325 2 341 21 11 13 11 13 7 0
-4 -13 10 -15 92 -15 55 0 101 4 105 10 5 7 8 7 8 0 0 -6 16 -12 36 -13 45 -3
74 -18 74 -37 0 -10 10 -15 30 -15 19 0 30 5 30 14 0 23 24 37 40 23 9 -8 11
-8 6 0 -4 7 0 10 11 8 10 -2 21 -4 26 -4 4 -1 7 -8 7 -17 0 -9 -5 -12 -12 -8
-6 4 -8 3 -5 -2 3 -6 24 -11 46 -12 35 -2 41 0 41 16 0 11 9 22 20 25 13 3 18
1 13 -6 -5 -9 -2 -8 8 0 15 12 134 14 1054 15 182 0 364 0 405 0 282 2 476 -5
489 -15 12 -9 13 -9 7 1 -5 9 -1 11 16 8 13 -3 23 -5 23 -6 0 -2 38 -11 52
-12 7 -1 10 -4 7 -7 -9 -10 -28 -8 -36 4 -5 6 -8 5 -8 -3 0 -7 -5 -10 -12 -6
-6 4 -8 3 -5 -3 3 -5 39 -9 79 -9 62 1 73 3 70 18 -1 9 3 20 9 24 8 5 9 3 4
-7 -7 -11 -6 -12 6 -2 20 16 298 16 318 0 12 -10 13 -9 7 1 -7 11 -4 12 13 3
11 -7 21 -9 21 -5 0 3 8 0 17 -7 11 -10 14 -10 9 -2 -4 7 -6 13 -4 14 2 0 29
2 62 5 44 4 56 3 51 -7 -6 -8 -4 -10 6 -4 18 12 121 16 421 18 151 1 244 5
241 11 -4 5 -1 6 8 0 16 -10 58 -12 376 -13 l233 -1 6 -25 c8 -32 45 -34 59
-3 l10 23 373 0 c206 0 376 -3 379 -8 3 -4 11 -3 18 3 9 8 15 8 20 0 3 -6 12
-7 18 -3 20 13 153 13 2574 12 750 0 844 1 866 15 13 9 27 13 30 9 4 -3 7 -2
7 4 0 13 38 11 48 -2 11 -16 32 -12 46 8 10 13 28 17 80 17 56 0 73 4 100 25
24 18 45 25 79 25 40 0 46 3 49 22 3 20 10 23 51 26 42 3 47 5 47 28 0 21 5
24 34 24 47 0 66 9 66 31 0 16 8 19 46 19 38 0 47 4 51 20 3 11 16 22 29 25
13 3 35 7 49 10 16 3 25 12 25 24 0 14 10 20 40 25 24 4 45 14 52 26 7 11 23
20 35 20 16 0 23 6 23 19 0 12 11 23 30 30 17 5 30 15 30 21 0 6 4 9 9 6 5 -3
11 1 15 9 3 8 11 15 19 15 7 0 34 22 60 49 25 28 55 55 67 61 11 6 20 17 20
24 0 8 9 16 21 19 11 3 23 15 26 26 3 11 15 21 27 23 13 2 22 11 24 25 2 12
12 25 22 28 10 3 21 14 24 23 3 9 16 22 28 27 13 6 24 19 26 30 2 11 14 31 27
45 13 14 25 34 27 45 2 12 13 21 26 23 16 3 22 10 22 30 0 15 11 39 25 54 14
15 25 34 25 43 0 9 11 31 25 49 14 18 25 40 25 49 0 9 11 27 25 41 16 16 25
36 25 56 0 20 5 30 15 30 19 0 35 31 35 69 0 21 5 31 15 31 21 0 35 41 35 100
0 35 4 50 16 54 9 4 14 13 10 22 -3 8 -2 12 4 9 12 -7 18 20 24 110 8 98 21
193 27 200 4 3 5 -17 4 -44 -1 -28 1 -48 5 -46 13 8 9 788 -4 804 -8 12 -8 13
1 7 10 -6 12 1616 10 7901 -2 6557 -4 7908 -15 7905 -8 -1 -11 2 -7 8 3 6 11
8 16 5 5 -4 9 862 9 2270 0 1811 -3 2275 -13 2269 -9 -6 -9 -4 -1 7 12 15 16
261 4 254 -4 -2 -6 -23 -5 -45 1 -22 -1 -38 -4 -35 -11 12 -7 95 4 95 8 0 11
38 11 128 -1 124 -2 127 -23 124 -21 -3 -21 -1 -23 169 0 95 -5 178 -9 183 -5
6 -7 19 -6 29 2 9 -1 15 -6 11 -5 -3 -9 3 -9 13 0 15 -2 16 -10 3 -7 -11 -10
3 -10 47 0 74 -6 93 -30 93 -15 0 -19 12 -25 75 -4 41 -11 78 -16 81 -5 3 -6
10 -3 16 4 7 2 8 -4 4 -7 -4 -14 4 -17 21 -9 38 -27 76 -44 89 -7 5 -15 32
-18 58 -4 36 -11 50 -24 53 -13 4 -19 15 -19 35 0 37 -16 68 -35 68 -8 0 -15
9 -15 20 0 12 -10 24 -24 29 -14 6 -25 20 -29 38 -3 15 -26 50 -51 77 -25 26
-46 56 -48 65 -2 9 -13 17 -25 19 -14 2 -23 12 -25 25 -2 14 -11 23 -25 25
-14 2 -23 11 -25 25 -2 14 -11 23 -25 25 -14 2 -23 11 -25 25 -2 13 -11 23
-23 25 -11 2 -25 13 -30 25 -6 12 -20 24 -32 27 -12 3 -33 15 -47 28 -15 12
-35 22 -46 22 -15 0 -20 7 -20 25 0 20 -5 25 -24 25 -14 0 -38 11 -54 25 -17
14 -39 25 -51 25 -16 0 -21 6 -21 25 0 20 -5 25 -24 25 -14 0 -37 11 -52 25
-15 14 -36 25 -48 25 -12 0 -25 9 -31 23 -8 17 -20 23 -52 25 -34 2 -43 7 -43
22 0 22 -10 26 -80 29 -64 3 -70 6 -70 32 0 16 -7 19 -51 19 -38 0 -58 6 -83
25 -27 21 -44 25 -99 25 -50 0 -67 3 -67 14 0 21 -49 36 -125 39 -39 1 -76 6
-84 11 -9 6 -12 5 -8 -1 3 -5 0 -10 -8 -10 -8 0 -12 4 -9 9 3 4 0 8 -5 8 -6 0
-11 7 -11 15 0 23 -47 19 -53 -5 -3 -13 -11 -18 -26 -15 -12 2 -21 0 -21 -6 0
-13 -84 -11 -97 2 -6 6 -9 18 -6 25 4 12 -512 14 -3432 14 -3223 0 -3437 -1
-3424 -17 10 -12 10 -14 1 -9 -11 7 -17 -6 -12 -29 1 -5 -2 -6 -7 -2 -4 5 -8
18 -8 30 l0 22 -7268 3 c-4488 1 -7266 -2 -7262 -7 3 -5 1 -12 -4 -15 -5 -4
-13 -1 -17 5 -5 8 -3 9 7 4 11 -6 11 -5 2 5 -17 19 -37 2 -21 -18 12 -15 11
-16 -4 -3 -10 7 -15 17 -12 22 3 5 0 9 -5 9 -6 0 -11 -8 -12 -17 0 -15 -2 -15
-9 2 -7 17 -9 16 -9 -10 -1 -23 -4 -27 -11 -15 -5 8 -10 10 -10 4 0 -15 -179
-19 -181 -5 -1 6 -2 17 -3 24 -1 11 -60 20 -70 10z m22615 -250 c0 -5 2 -15 4
-24 2 -10 -3 -16 -11 -15 -21 3 -37 23 -30 35 8 12 36 15 37 4z m45 -79 c-5
-13 -10 -14 -18 -6 -6 6 -8 18 -4 28 5 13 10 14 18 6 6 -6 8 -18 4 -28z
m-22900 -1037 c6 -3 17 -28 24 -54 19 -70 19 -74 7 -66 -6 4 -8 0 -4 -9 9 -24
-20 -58 -46 -54 -12 3 -32 5 -44 5 -22 1 -23 5 -23 76 0 73 4 81 34 76 5 -1 6
5 2 14 -3 9 -2 13 4 10 18 -11 51 -14 45 -4 -4 5 -10 7 -15 4 -5 -3 -11 -1
-14 4 -7 10 13 9 30 -2z m20359 -102 c0 -11 -8 -21 -19 -23 -10 -2 -28 -13
-40 -24 -12 -12 -15 -17 -7 -13 10 6 12 4 7 -4 -6 -9 -11 -9 -22 0 -9 7 -14 8
-14 1 0 -11 -18 -11 -37 1 -7 5 -13 26 -13 48 l0 40 73 -3 c64 -3 72 -5 72
-23z m-20409 -444 c-4 -5 -1 -11 5 -13 11 -4 14 -37 10 -116 -1 -31 -3 -33
-31 -28 -16 2 -32 0 -35 -4 -3 -5 3 -7 15 -5 11 2 22 0 24 -4 7 -10 -35 -8
-51 2 -8 5 -13 3 -13 -4 0 -7 -3 -9 -6 -6 -4 4 -1 14 7 24 9 11 10 14 2 9 -10
-5 -13 7 -13 51 0 48 4 60 21 71 12 8 19 10 16 5 -3 -4 8 -8 23 -8 16 -1 26 3
24 7 -3 5 -9 6 -14 3 -5 -3 -12 0 -16 6 -4 7 -3 9 4 5 6 -3 13 -2 17 4 3 5 8
10 11 10 3 0 3 -4 0 -9z m20564 -153 c0 -10 7 -18 15 -18 8 0 19 -9 25 -19 12
-24 2 -32 -51 -38 -35 -4 -39 -3 -41 19 -2 43 -3 47 -12 55 -5 4 -6 3 -2 -4 3
-6 2 -14 -3 -17 -5 -4 -8 2 -7 11 2 10 8 18 14 18 6 0 13 3 17 7 14 13 45 4
45 -14z m3636 -38 c0 -33 -3 -55 -7 -49 -3 6 -5 24 -4 40 1 16 -2 29 -9 29 -6
0 -4 5 4 10 13 9 13 10 0 10 -13 0 -13 1 0 10 8 5 15 10 15 10 0 0 0 -27 1
-60z m0 -110 c-1 -21 -4 -42 -7 -44 -3 -3 -4 11 -3 32 2 47 3 52 8 52 2 0 3
-18 2 -40z m-1 -322 c2 -20 1 -20 -11 -3 -7 10 -11 22 -8 27 8 13 17 2 19 -24z
m2 -471 c0 -8 -6 -14 -14 -14 -9 0 -10 4 -2 14 6 7 12 13 14 13 1 0 2 -6 2
-13z m-25569 -140 c-1 -2 2 -10 9 -18 9 -11 8 -20 -2 -39 -8 -14 -14 -20 -14
-15 -1 6 3 17 8 25 6 8 7 19 3 25 -8 12 -12 39 -5 32 2 -3 3 -7 1 -10z m12632
-1675 c18 -19 31 -22 106 -22 77 0 89 -3 116 -25 22 -19 41 -25 74 -25 33 0
54 -7 78 -25 18 -14 43 -25 54 -25 13 0 22 -6 22 -15 0 -16 38 -35 71 -35 11
0 35 -11 53 -25 18 -14 43 -25 54 -25 13 0 22 -6 22 -15 0 -18 31 -35 66 -35
15 0 42 -11 60 -25 18 -14 40 -25 49 -25 10 0 30 -11 47 -25 17 -14 42 -25 59
-25 18 0 39 -9 54 -24 16 -16 39 -26 62 -28 28 -2 41 -9 48 -25 8 -19 18 -23
57 -23 36 0 48 -4 48 -15 0 -19 31 -35 69 -35 17 0 31 -4 31 -10 0 -14 54 -40
83 -40 13 0 36 -11 51 -25 15 -14 38 -25 52 -25 14 0 36 -11 50 -25 14 -14 36
-25 50 -25 33 0 64 -17 64 -35 0 -10 11 -15 34 -15 25 0 40 -7 54 -24 13 -17
31 -26 58 -28 29 -2 42 -9 49 -25 7 -17 19 -23 50 -25 30 -2 42 -8 50 -25 8
-19 18 -23 53 -23 36 0 44 -4 52 -24 7 -20 17 -25 52 -28 36 -2 44 -7 46 -25
3 -20 9 -23 47 -23 34 0 50 -6 69 -25 16 -15 36 -25 55 -25 17 0 42 -11 58
-24 17 -15 45 -26 69 -28 29 -2 41 -9 49 -25 7 -17 18 -23 42 -23 22 0 38 -8
51 -25 12 -15 30 -25 46 -25 15 0 38 -11 52 -25 18 -18 36 -25 65 -25 33 0 41
-4 49 -25 8 -21 16 -25 51 -25 33 0 42 -4 46 -20 3 -12 17 -23 32 -26 41 -9
71 -26 71 -41 0 -8 12 -13 34 -13 44 0 66 -9 66 -25 0 -7 15 -16 33 -20 57
-11 67 -16 67 -30 0 -7 15 -16 33 -20 57 -12 65 -15 70 -35 4 -15 14 -20 39
-20 38 0 52 -8 61 -32 4 -13 17 -18 43 -18 26 0 43 -7 60 -25 16 -18 34 -25
59 -25 25 0 35 -4 35 -15 0 -16 38 -35 70 -35 10 0 31 -11 46 -25 16 -15 39
-25 55 -25 16 0 29 -4 29 -10 0 -13 54 -40 79 -40 11 0 33 -11 49 -25 17 -14
39 -25 50 -25 11 0 33 -11 49 -24 17 -15 45 -26 69 -28 29 -2 41 -9 49 -25 7
-18 18 -23 45 -23 40 0 54 -7 63 -32 5 -13 17 -18 47 -18 30 0 42 -5 47 -17 9
-26 23 -33 66 -33 20 0 37 -4 37 -10 0 -13 54 -40 80 -40 11 0 20 -4 20 -10 0
-15 56 -40 89 -40 20 0 36 -8 49 -25 16 -20 29 -25 64 -25 35 0 45 -4 53 -22
7 -17 20 -24 49 -26 27 -2 40 -9 43 -22 5 -19 31 -30 71 -30 15 0 26 -9 32
-25 8 -21 16 -25 50 -25 34 0 42 -4 50 -25 8 -22 16 -25 55 -25 33 0 45 -4 45
-15 0 -18 31 -35 65 -35 15 0 34 -9 44 -21 10 -13 36 -24 66 -30 28 -5 57 -17
66 -28 10 -12 32 -21 55 -23 29 -2 42 -9 49 -25 7 -17 19 -23 55 -25 38 -3 45
-6 48 -25 3 -18 10 -23 33 -23 19 0 39 -10 55 -25 14 -14 34 -25 44 -25 15 0
20 -7 20 -25 0 -18 5 -25 19 -25 11 0 32 -11 47 -25 15 -14 39 -25 55 -25 21
0 28 -5 31 -22 2 -14 11 -24 23 -26 51 -7 64 -13 70 -32 4 -13 15 -20 30 -20
17 0 25 -6 27 -22 2 -13 11 -24 23 -27 11 -2 26 -12 33 -22 7 -11 29 -26 47
-33 24 -10 36 -23 40 -43 11 -49 14 -53 35 -53 15 0 20 -7 20 -24 0 -18 6 -25
23 -28 14 -2 23 -11 25 -24 2 -12 12 -24 23 -27 11 -3 23 -15 26 -26 3 -11 13
-23 24 -26 18 -6 21 -13 33 -66 3 -15 15 -29 26 -32 11 -3 20 -13 20 -22 0 -9
11 -26 25 -37 18 -14 25 -29 25 -53 0 -21 9 -44 25 -63 14 -17 25 -39 25 -50
0 -12 8 -27 18 -34 10 -7 21 -21 25 -31 4 -10 7 -162 7 -337 1 -177 5 -320 10
-322 5 -2 11 -15 14 -30 2 -15 7 -32 10 -37 4 -5 -2 -17 -11 -27 -16 -15 -18
-46 -20 -272 -2 -171 -7 -259 -14 -268 -21 -26 -89 -9 -89 21 0 11 -13 15 -49
15 -37 0 -56 6 -78 24 -15 13 -37 25 -48 27 -12 3 -21 14 -23 27 -3 18 -10 22
-37 22 -46 0 -65 9 -65 31 0 12 -7 19 -20 19 -12 0 -42 11 -68 25 -26 14 -57
25 -70 25 -13 0 -37 9 -53 20 -15 12 -41 25 -58 31 -16 6 -31 19 -34 30 -4 15
-14 19 -46 19 -23 0 -43 6 -48 14 -11 18 -47 36 -73 36 -14 0 -24 8 -27 20 -5
19 -17 25 -68 32 -11 2 -24 13 -30 25 -7 17 -19 23 -50 25 -30 2 -42 8 -50 26
-6 13 -19 22 -32 22 -19 0 -35 13 -39 30 0 3 -3 12 -6 20 -25 73 -28 105 -28
342 0 250 0 256 -21 261 -11 3 -23 14 -26 25 -3 14 -17 22 -44 26 -24 4 -42
14 -49 26 -6 11 -18 20 -26 20 -8 0 -30 11 -48 25 -18 14 -43 25 -55 25 -12 0
-34 11 -49 25 -15 14 -34 25 -43 25 -8 0 -37 11 -65 24 -27 13 -63 27 -81 30
-17 4 -37 14 -43 22 -7 7 -16 11 -21 8 -5 -3 -9 0 -9 5 0 6 -7 11 -15 11 -9 0
-27 11 -41 25 -14 14 -34 25 -44 25 -11 0 -20 3 -20 8 0 10 -57 39 -90 46 -14
3 -35 14 -47 26 -12 11 -31 20 -42 20 -11 0 -33 11 -49 25 -17 14 -38 25 -47
25 -9 0 -24 9 -34 21 -9 11 -32 24 -51 28 -26 5 -36 13 -38 29 -3 19 -9 22
-53 22 -45 0 -49 -2 -49 -24 0 -13 -7 -29 -15 -36 -18 -15 -20 -71 -4 -87 8
-8 9 -25 4 -50 -11 -52 -12 -74 -4 -103 3 -14 2 -36 -3 -49 -6 -17 -4 -31 7
-48 15 -22 14 -33 -6 -131 -12 -59 -21 -132 -20 -162 1 -30 3 -145 5 -255 2
-110 6 -216 9 -235 2 -19 -2 -50 -9 -69 -8 -18 -12 -43 -9 -55 5 -28 19 -729
14 -781 -1 -22 -2 -69 -1 -105 3 -144 1 -280 -7 -351 -4 -43 -3 -112 2 -164
13 -110 12 -184 -2 -198 -14 -14 -15 -144 -2 -152 6 -3 13 -27 17 -53 3 -26 8
-55 10 -64 1 -10 -1 -20 -5 -23 -15 -9 -23 -95 -11 -110 18 -21 15 -113 -4
-134 -14 -15 -16 -34 -10 -112 7 -112 7 -131 -2 -230 -4 -54 -2 -93 10 -137
11 -45 13 -74 7 -108 -5 -25 -7 -188 -5 -362 2 -175 5 -432 7 -572 1 -140 6
-272 11 -294 6 -28 5 -40 -4 -46 -17 -10 -27 -150 -11 -150 16 0 13 -66 -5
-102 -18 -34 -12 -123 9 -144 9 -10 9 -49 0 -58 -14 -13 -15 -71 -16 -508 -1
-325 2 -431 11 -440 17 -17 15 -74 -4 -92 -14 -14 -14 -25 -1 -98 12 -73 12
-85 -1 -100 -12 -14 -13 -32 -8 -85 4 -38 9 -103 11 -146 2 -43 6 -81 9 -84 3
-3 -2 -18 -11 -33 -13 -23 -14 -37 -6 -81 8 -37 8 -60 0 -76 -7 -16 -7 -30 1
-49 8 -17 9 -31 2 -44 -14 -26 -13 -353 1 -367 5 -5 13 -35 16 -64 4 -43 2
-57 -11 -68 -19 -16 -23 -141 -4 -170 9 -14 9 -41 0 -114 -7 -53 -12 -142 -12
-199 0 -107 -4 -120 -32 -131 -10 -3 -18 -16 -18 -27 0 -15 -7 -20 -24 -20
-14 0 -37 -11 -53 -24 -16 -13 -46 -28 -67 -31 -21 -4 -45 -16 -54 -26 -10 -9
-35 -19 -57 -21 -33 -2 -41 -7 -43 -26 -2 -14 -10 -22 -23 -22 -25 0 -79 -27
-79 -40 0 -6 -11 -10 -24 -10 -17 0 -26 -7 -30 -25 -4 -16 -13 -25 -26 -25
-11 0 -20 -4 -20 -8 0 -12 -55 -42 -77 -42 -10 0 -24 -9 -30 -20 -7 -10 -30
-24 -52 -30 -25 -6 -41 -17 -44 -30 -3 -11 -13 -20 -22 -20 -9 0 -31 -11 -49
-25 -18 -14 -42 -25 -53 -25 -12 0 -23 -8 -26 -19 -2 -10 -21 -27 -40 -36 -20
-9 -41 -23 -48 -31 -6 -8 -20 -14 -31 -14 -22 0 -78 -30 -78 -42 0 -4 -9 -8
-20 -8 -12 0 -33 -11 -47 -25 -15 -13 -40 -29 -55 -36 -15 -6 -28 -18 -28 -25
0 -9 -11 -14 -30 -14 -20 0 -40 -9 -56 -25 -14 -14 -31 -25 -39 -25 -8 0 -25
-11 -39 -25 -15 -15 -37 -25 -53 -25 -20 0 -31 -7 -38 -22 -10 -22 -56 -39
-82 -30 -10 3 -13 86 -13 369 l0 366 25 23 c14 13 25 34 25 47 0 30 14 42 59
51 19 3 39 13 45 22 7 9 30 18 51 21 41 5 95 31 95 45 0 4 11 8 25 8 14 0 25
4 25 10 0 13 101 87 126 91 11 3 20 14 22 27 2 12 9 22 16 22 30 0 36 53 30
270 -3 118 -5 240 -3 270 1 30 3 140 3 243 1 178 0 189 -19 203 -11 8 -32 24
-47 37 -16 12 -47 24 -70 27 -32 4 -46 11 -53 28 -7 16 -18 22 -42 22 -40 0
-63 9 -63 25 0 13 -30 25 -68 25 -15 0 -26 9 -32 25 -8 21 -16 25 -51 25 -32
0 -42 4 -46 19 -5 21 -31 31 -81 31 -22 0 -41 9 -58 25 -18 18 -36 25 -64 25
-39 0 -89 17 -101 34 -10 13 -86 0 -104 -18 -9 -9 -33 -16 -54 -16 -30 0 -40
-5 -51 -25 -7 -13 -16 -24 -19 -23 -3 0 -30 0 -59 -1 -40 -1 -54 -5 -59 -18
-9 -25 -23 -33 -62 -33 -23 0 -39 -7 -53 -25 -11 -14 -29 -25 -41 -25 -27 0
-42 -10 -50 -32 -3 -10 -16 -18 -27 -18 -26 0 -62 -18 -73 -36 -4 -8 -16 -14
-26 -14 -10 0 -35 -11 -55 -25 -20 -14 -46 -25 -57 -25 -11 0 -30 -11 -43 -24
-13 -12 -41 -26 -62 -29 -23 -4 -45 -15 -53 -27 -10 -15 -24 -20 -55 -20 -33
0 -43 -4 -51 -22 -7 -17 -20 -24 -49 -26 -28 -2 -40 -9 -43 -23 -3 -11 -17
-22 -32 -25 -46 -10 -71 -23 -71 -39 0 -10 -10 -15 -29 -15 -16 0 -39 -10 -55
-25 -15 -14 -34 -25 -42 -25 -8 0 -27 -11 -42 -25 -15 -14 -38 -25 -52 -25
-17 0 -29 -8 -35 -22 -6 -13 -19 -24 -30 -26 -54 -8 -65 -13 -65 -32 0 -17 -7
-20 -45 -20 -39 0 -47 -3 -55 -24 -7 -20 -17 -25 -52 -28 -36 -2 -44 -7 -46
-25 -3 -18 -10 -23 -33 -23 -38 0 -69 -16 -69 -35 0 -9 -10 -15 -24 -15 -14 0
-38 -11 -54 -25 -17 -14 -39 -25 -51 -25 -12 0 -21 -4 -21 -10 0 -12 -53 -40
-77 -40 -10 0 -23 -10 -28 -22 -8 -18 -20 -24 -50 -26 -30 -2 -43 -8 -50 -24
-6 -13 -24 -26 -43 -30 -18 -5 -38 -17 -45 -28 -6 -11 -20 -20 -29 -20 -9 0
-21 -6 -25 -14 -11 -19 -48 -36 -77 -36 -15 0 -26 -6 -26 -13 0 -16 -41 -37
-71 -37 -25 0 -79 -27 -79 -40 0 -6 -10 -10 -22 -10 -11 0 -36 -11 -54 -25
-18 -14 -42 -25 -53 -25 -11 0 -33 -11 -49 -25 -17 -14 -38 -25 -47 -25 -9 0
-30 -11 -47 -25 -16 -14 -39 -25 -50 -25 -12 0 -36 -11 -54 -25 -18 -14 -39
-25 -48 -25 -8 0 -27 -11 -41 -24 -14 -13 -38 -26 -54 -29 -17 -4 -30 -14 -34
-26 -4 -16 -13 -21 -41 -21 -24 0 -42 -8 -58 -24 -13 -13 -36 -26 -51 -30 -15
-4 -35 -15 -45 -26 -11 -14 -29 -20 -59 -20 -35 0 -42 -3 -45 -22 -2 -17 -12
-24 -38 -28 -44 -7 -60 -17 -60 -36 0 -8 -9 -14 -19 -14 -22 0 -81 -31 -81
-42 0 -5 -9 -8 -21 -8 -23 0 -79 -30 -79 -42 0 -4 -9 -8 -21 -8 -12 0 -30 -11
-40 -24 -10 -13 -32 -26 -50 -30 -19 -4 -33 -13 -36 -26 -4 -15 -14 -20 -40
-20 -23 0 -41 -8 -57 -25 -13 -14 -32 -25 -42 -25 -34 0 -64 -12 -64 -25 0 -8
-10 -17 -22 -21 -13 -4 -40 -18 -60 -30 -21 -13 -44 -24 -53 -24 -8 0 -15 -7
-15 -15 0 -8 -10 -24 -22 -35 -23 -21 -23 -21 -4 -68 25 -64 34 -390 13 -469
-8 -29 -13 -81 -12 -115 2 -44 -2 -71 -13 -88 -18 -29 -59 -72 -47 -50 6 12 5
13 -6 2 -7 -6 -23 -12 -36 -12 -13 0 -23 -6 -23 -14 0 -19 -30 -33 -75 -35
-15 0 -25 -7 -25 -16 0 -17 -30 -35 -61 -35 -12 0 -32 -11 -45 -25 -16 -17
-34 -25 -57 -25 -20 0 -50 -10 -71 -25 -20 -14 -41 -25 -46 -25 -13 0 -70 -34
-70 -42 0 -5 -9 -8 -21 -8 -12 0 -34 -11 -51 -25 -16 -14 -40 -25 -54 -25 -17
0 -24 -6 -24 -19 0 -12 -9 -22 -22 -26 -52 -15 -78 -28 -78 -41 0 -8 -10 -14
-25 -14 -14 0 -25 -4 -25 -10 0 -11 -53 -40 -74 -40 -8 0 -26 -11 -40 -25 -15
-15 -36 -25 -54 -25 -23 0 -31 -5 -36 -25 -5 -21 -12 -25 -46 -25 -33 0 -42
-4 -49 -24 -6 -14 -20 -25 -38 -29 -15 -3 -38 -15 -50 -26 -12 -12 -31 -21
-42 -21 -11 0 -33 -11 -49 -25 -35 -29 -122 -37 -122 -10 0 21 -32 35 -80 35
-31 0 -47 6 -64 25 -13 14 -31 25 -40 25 -9 0 -16 4 -16 8 0 12 -56 42 -78 42
-11 0 -22 8 -25 19 -3 13 -20 24 -47 31 -27 7 -44 18 -47 31 -4 13 -14 19 -35
19 -37 0 -68 16 -68 35 0 9 -9 15 -21 15 -12 0 -34 11 -51 25 -16 14 -40 25
-53 25 -13 0 -37 11 -53 25 -17 14 -38 25 -47 25 -10 0 -32 11 -49 23 -17 13
-47 27 -67 31 -20 3 -44 15 -54 26 -10 11 -25 20 -33 20 -8 0 -27 11 -44 25
-17 14 -42 25 -59 25 -38 0 -69 16 -69 35 0 10 -10 15 -30 15 -20 0 -40 9 -56
25 -15 15 -36 25 -54 25 -41 0 -60 10 -60 31 0 15 -7 19 -37 19 -43 0 -57 7
-66 33 -4 11 -17 17 -36 17 -20 0 -36 8 -49 25 -12 15 -30 25 -46 25 -15 0
-38 11 -52 25 -14 14 -37 25 -52 25 -30 1 -62 21 -62 39 0 6 -14 11 -31 11
-38 0 -69 16 -69 35 0 9 -9 15 -21 15 -23 0 -79 30 -79 42 0 4 -9 8 -20 8 -26
0 -80 27 -80 40 0 6 -14 10 -30 10 -20 0 -40 9 -56 25 -14 14 -35 25 -48 25
-12 0 -33 11 -46 25 -13 14 -32 25 -43 25 -10 0 -32 11 -49 25 -16 14 -40 25
-53 25 -12 0 -26 7 -29 15 -3 9 -21 22 -40 30 -19 8 -41 23 -48 33 -7 10 -21
21 -30 25 -10 3 -20 19 -24 34 -10 49 -14 55 -34 60 -12 3 -20 14 -20 25 0 11
-11 33 -25 50 -14 16 -25 40 -25 52 0 14 -9 27 -24 34 -16 7 -25 22 -30 50 -4
28 -12 41 -26 45 -16 4 -20 13 -20 51 0 25 -4 46 -8 46 -15 0 -42 59 -42 93 0
34 -23 91 -41 102 -5 4 -9 34 -9 67 0 39 -8 84 -22 122 -22 59 -23 72 -23 416
0 259 4 375 14 430 16 90 17 106 7 235 -4 55 -6 120 -5 145 2 46 2 97 0 305
-1 66 1 138 4 160 13 93 13 161 1 180 -8 13 -11 50 -9 110 3 91 4 146 3 245 0
30 2 66 5 80 11 57 25 202 20 211 -14 22 -17 66 -17 254 1 333 14 516 37 535
15 12 55 0 74 -24 7 -9 22 -16 33 -16 11 0 27 -9 37 -21 12 -15 33 -23 76 -28
52 -5 60 -9 63 -28 3 -18 11 -22 45 -25 32 -2 44 -8 52 -25 8 -19 18 -23 53
-23 36 0 44 -4 52 -25 7 -18 17 -25 35 -25 14 0 37 -11 51 -25 14 -14 33 -25
44 -25 10 0 32 -11 48 -25 17 -14 37 -25 47 -25 9 0 31 -11 49 -25 18 -14 41
-25 51 -25 9 0 30 -11 47 -25 16 -14 38 -25 49 -25 12 0 21 -9 25 -25 4 -18
13 -25 29 -25 17 0 25 -7 27 -22 2 -15 11 -24 24 -26 12 -2 34 -17 49 -33 l27
-31 -5 -246 c-3 -136 -6 -251 -7 -257 0 -5 2 -31 6 -57 5 -36 3 -54 -10 -73
-19 -30 -24 -88 -8 -107 11 -14 11 -34 1 -53 -7 -12 -6 -19 10 -75 8 -28 11
-63 6 -95 -7 -52 -16 -295 -13 -375 0 -25 1 -126 1 -225 1 -152 -2 -202 -15
-253 -1 -4 2 -34 6 -67 15 -104 20 -232 17 -395 -1 -58 0 -148 3 -200 3 -52 5
-141 5 -196 0 -100 1 -102 31 -133 18 -17 40 -31 51 -31 10 0 19 -7 19 -15 0
-19 31 -35 69 -35 17 0 31 -3 31 -7 0 -14 61 -43 91 -43 16 0 38 -9 50 -21 12
-12 42 -24 70 -28 28 -5 60 -17 72 -30 13 -11 35 -21 49 -21 14 0 37 -11 52
-25 15 -14 36 -25 46 -25 29 0 70 -22 70 -37 0 -7 11 -13 25 -13 16 0 25 -6
25 -15 0 -18 35 -33 85 -37 19 -1 46 -12 61 -24 26 -23 54 -22 54 2 0 7 10 16
23 19 12 4 27 16 32 28 7 16 20 23 48 25 29 3 40 9 47 26 5 14 20 25 37 29 15
3 38 15 50 26 12 12 31 21 43 21 11 0 20 4 20 9 0 20 33 41 62 41 18 0 42 10
60 25 16 14 38 25 48 25 10 0 32 14 49 31 l31 30 4 3592 c2 1976 6 3625 9
3666 3 41 10 77 14 80 5 3 9 29 10 56 1 28 6 88 11 135 8 66 14 88 31 101 13
11 21 29 21 47 0 20 8 37 24 49 13 11 25 28 27 39 3 11 14 20 27 22 16 3 22
10 22 28 0 19 5 24 24 24 18 0 25 6 28 22 2 13 11 24 22 26 11 2 31 15 45 28
14 13 38 24 53 24 16 0 28 4 28 8 0 22 62 42 128 42 41 0 72 4 74 11 6 17 125
20 139 3 6 -8 21 -14 32 -14 11 0 35 -11 53 -25 18 -14 42 -25 53 -25 14 0 21
-6 21 -20 0 -19 11 -24 65 -32 11 -2 24 -13 30 -26 7 -15 18 -22 37 -22 16 0
38 -11 52 -25 14 -14 33 -25 42 -25 9 0 32 -11 50 -25 18 -14 44 -25 59 -25
14 0 37 -11 51 -25 19 -19 35 -25 69 -25 31 0 45 -4 45 -13 0 -16 41 -37 72
-37 12 0 36 -11 54 -25 18 -14 44 -25 58 -25 14 0 36 -11 50 -25 14 -14 32
-25 41 -25 22 0 75 -28 75 -40 0 -6 13 -10 29 -10 16 0 39 -10 54 -24 16 -15
42 -26 64 -28 28 -2 41 -9 48 -25 7 -17 18 -23 42 -23 22 0 38 -8 51 -25 12
-15 30 -25 46 -25 15 0 38 -11 52 -25 18 -18 36 -25 65 -25 33 0 42 -4 46 -20
5 -19 17 -25 68 -32 11 -2 24 -13 30 -26 8 -18 18 -22 51 -22 33 0 45 -5 58
-25 13 -20 25 -25 56 -25 28 0 40 -4 40 -15 0 -19 31 -35 69 -35 21 0 31 -5
31 -15 0 -18 31 -35 64 -35 14 0 40 -9 58 -20 44 -27 104 -27 120 0 7 11 23
20 35 20 14 0 23 6 23 15 0 19 31 35 69 35 23 0 30 5 33 23 2 14 11 23 24 25
12 2 24 12 27 23 5 19 11 23 61 34 16 3 30 14 33 25 3 13 14 20 29 20 32 0 74
21 74 37 0 8 12 13 31 13 38 0 69 16 69 35 0 9 9 15 21 15 12 0 30 11 41 25
14 18 29 25 53 25 24 0 34 5 38 20 3 11 16 24 29 29 12 5 32 18 42 30 11 12
31 21 47 21 21 0 28 5 31 22 2 14 11 24 23 26 39 6 75 25 75 38 0 8 10 14 23
14 12 0 28 9 35 20 7 12 28 22 50 26 26 4 41 13 48 27 5 12 18 23 29 25 51 7
63 13 68 32 3 11 14 20 25 20 10 0 27 9 38 21 10 11 33 27 51 34 18 8 33 21
33 29 0 10 9 16 25 16 15 0 25 6 25 15 0 19 31 35 67 35 20 0 31 7 38 23 7 16
20 23 48 25 30 3 40 9 47 28 7 18 17 24 39 24 42 0 61 9 61 31 0 13 7 19 21
19 11 0 35 11 53 25 18 14 42 25 52 25 11 0 24 10 29 23 8 17 20 23 52 25 34
3 42 7 45 25 2 18 11 23 46 25 35 3 45 8 52 28 7 17 17 24 35 24 15 0 36 11
49 25 13 14 30 25 39 25 9 0 27 11 41 25 15 15 36 25 54 25 21 0 31 6 35 20 5
20 11 24 61 35 16 3 30 14 33 25 4 14 14 20 35 20 18 0 39 10 54 25 14 14 32
25 40 25 8 0 30 11 48 25 18 14 40 25 49 25 9 0 27 11 41 25 14 14 36 25 50
25 14 0 36 11 50 25 16 15 36 25 55 25 23 0 30 5 33 23 2 15 11 23 28 25 36 4
70 23 70 39 0 7 10 13 23 13 14 0 26 9 32 23 7 16 21 23 50 27 32 4 41 9 43
28 2 14 10 22 24 22 11 0 29 11 40 25 11 14 27 25 36 25 21 1 52 23 52 39 0 6
11 11 24 11 28 0 76 35 76 56 0 8 8 22 19 33 15 15 20 41 26 140 5 85 4 121
-4 121 -6 0 -19 27 -28 61 -20 72 -44 92 -107 91 -29 -1 -50 5 -63 17 -11 11
-34 26 -51 35 -17 9 -35 23 -39 31 -5 8 -23 15 -42 17 -20 1 -40 11 -51 25
-12 15 -29 23 -48 23 -21 0 -37 8 -50 25 -14 17 -30 25 -51 25 -21 0 -40 9
-55 25 -16 17 -34 25 -56 25 -22 0 -40 8 -56 25 -16 18 -34 25 -59 25 -19 0
-35 4 -35 10 0 14 -55 40 -85 40 -14 0 -37 11 -51 25 -15 15 -36 25 -54 25
-19 0 -35 9 -48 25 -15 19 -29 25 -60 25 -30 0 -48 7 -66 25 -17 17 -36 25
-61 25 -25 0 -44 8 -61 25 -17 17 -36 25 -59 25 -32 0 -65 21 -65 41 0 5 -3 8
-7 8 -27 -4 -56 4 -72 20 -11 11 -36 23 -56 27 -20 3 -45 15 -54 26 -10 10
-35 22 -56 25 -21 3 -46 14 -56 24 -10 10 -31 21 -46 24 -37 8 -93 36 -93 47
0 4 -11 8 -25 8 -33 0 -75 20 -75 37 0 8 -12 13 -30 13 -20 0 -40 9 -56 25
-14 14 -34 25 -45 25 -23 0 -57 16 -77 37 -7 7 -31 13 -53 13 -28 0 -39 4 -39
15 0 16 -25 29 -72 39 -16 4 -28 13 -28 20 0 17 -22 26 -66 26 -19 0 -34 4
-34 10 0 15 -56 40 -89 40 -18 0 -41 10 -57 25 -15 14 -38 25 -51 25 -13 0
-34 11 -47 25 -14 15 -34 25 -50 25 -15 0 -40 7 -55 15 -26 13 -30 13 -41 0
-7 -8 -22 -15 -34 -15 -13 0 -33 -11 -46 -25 -14 -15 -35 -25 -52 -25 -17 0
-28 -5 -28 -13 0 -16 -41 -37 -72 -37 -11 0 -33 -11 -50 -25 -16 -14 -38 -25
-49 -25 -11 0 -22 -6 -25 -14 -3 -7 -26 -24 -51 -37 -25 -13 -48 -29 -50 -36
-3 -7 -15 -13 -27 -13 -12 0 -27 -9 -33 -20 -7 -10 -29 -22 -48 -26 -26 -4
-39 -14 -45 -30 -6 -14 -18 -24 -29 -24 -30 0 -71 -21 -71 -37 0 -7 -9 -13
-19 -13 -11 0 -32 -11 -47 -25 -15 -14 -38 -25 -51 -25 -16 0 -27 -8 -33 -25
-6 -16 -17 -25 -32 -25 -38 0 -68 -12 -68 -26 0 -7 -12 -16 -27 -20 -48 -10
-73 -23 -73 -39 0 -9 -9 -15 -21 -15 -12 0 -30 -11 -40 -24 -10 -13 -32 -26
-50 -30 -19 -4 -33 -13 -36 -26 -3 -11 -14 -20 -24 -20 -10 0 -29 -11 -43 -25
-15 -15 -36 -25 -54 -25 -21 0 -31 -6 -35 -20 -5 -20 -11 -24 -61 -35 -16 -3
-30 -14 -33 -25 -5 -18 -15 -20 -110 -20 -98 0 -105 2 -129 25 -18 18 -36 25
-65 25 -28 0 -51 8 -73 25 -20 15 -46 25 -67 25 -19 0 -54 11 -78 25 -23 14
-51 25 -61 25 -9 0 -34 11 -54 25 -24 16 -51 25 -76 25 -22 0 -40 3 -40 8 0
13 -61 42 -91 42 -16 0 -38 9 -50 21 -12 12 -43 24 -77 29 -37 6 -63 17 -74
30 -11 14 -28 20 -55 20 -26 0 -44 6 -55 19 -9 11 -34 23 -55 26 -75 12 -85
16 -90 35 -3 13 -14 20 -29 20 -13 0 -24 3 -24 8 0 8 -38 29 -100 56 -19 9
-42 20 -50 25 -8 5 -23 12 -32 15 -14 4 -18 17 -18 56 0 41 5 56 25 76 14 14
25 33 25 43 0 10 9 21 21 24 11 3 23 15 26 26 3 14 13 21 28 21 17 0 25 7 27
22 2 16 13 24 38 30 19 5 42 18 52 29 9 10 25 19 35 19 11 0 30 11 43 25 13
14 34 25 47 25 13 0 36 11 51 25 15 14 37 25 49 25 12 0 33 11 47 25 14 14 37
25 51 25 15 0 41 11 59 25 18 14 42 25 53 25 11 0 30 11 43 25 14 15 35 25 52
25 18 0 28 5 28 15 0 9 20 24 45 35 25 11 48 26 51 35 4 8 15 15 26 15 11 0
29 11 40 25 13 17 29 25 49 25 22 0 32 6 38 24 6 15 20 25 40 29 17 4 40 16
51 27 11 11 27 20 35 20 8 0 25 11 39 25 14 14 37 25 51 25 14 0 38 11 53 25
15 14 39 25 54 25 18 0 28 5 28 15 0 19 31 35 67 35 20 0 31 7 38 23 7 16 20
23 48 25 30 3 40 9 47 28 7 18 17 24 39 24 42 0 61 9 61 31 0 12 7 19 20 19
10 0 30 11 44 25 14 14 37 25 51 25 18 0 28 7 35 25 8 20 16 25 45 25 26 0 39
6 51 25 9 14 25 25 35 25 28 0 69 22 69 37 0 7 11 13 25 13 14 0 25 4 25 8 0
12 56 42 79 42 14 0 21 6 21 20 0 19 11 24 65 32 11 2 24 13 30 26 5 12 19 22
30 22 11 0 25 10 30 23 8 17 20 23 53 25 37 3 42 6 42 28 0 18 5 24 23 24 14
0 26 9 32 23 8 17 20 23 50 25 31 2 43 8 50 25 9 20 20 23 105 28 52 3 111 11
131 16 21 6 43 7 50 2 25 -16 88 -9 121 12 29 17 46 20 125 17 80 -3 96 -7
113 -26z m-8973 -59 c-3 -10 -5 -4 -5 12 0 17 2 24 5 18 2 -7 2 -21 0 -30z
m-50 -19 c-3 -4 -2 -15 3 -25 7 -12 6 -20 -1 -25 -8 -4 -8 -8 0 -13 6 -4 2
-12 -12 -20 -12 -8 -19 -10 -15 -6 4 5 3 14 -3 21 -7 8 -7 14 1 19 6 3 7 11 4
17 -5 7 -2 8 6 3 10 -6 12 -4 7 7 -5 15 0 28 11 28 3 0 2 -3 -1 -6z m4743
-1907 c0 3 8 -4 19 -15 13 -16 30 -22 62 -22 33 0 47 -5 56 -19 7 -11 27 -22
45 -26 39 -7 98 -36 98 -47 0 -5 16 -8 34 -8 23 0 44 -8 62 -25 16 -15 39 -25
57 -25 19 0 38 -9 53 -25 16 -18 34 -25 59 -25 23 0 35 -5 35 -14 0 -16 38
-32 95 -40 25 -3 45 -13 54 -26 10 -14 24 -20 53 -20 31 0 41 -4 45 -20 4 -14
17 -21 52 -26 46 -7 101 -32 101 -46 0 -4 14 -8 30 -8 20 0 40 -9 56 -25 14
-14 35 -25 47 -25 37 0 67 -12 67 -25 0 -16 22 -25 62 -25 18 0 45 -11 64 -25
18 -14 46 -25 63 -25 39 0 61 -9 61 -25 0 -16 23 -25 66 -25 19 0 34 -4 34
-10 0 -13 47 -36 93 -44 21 -4 43 -16 50 -26 9 -15 23 -20 59 -20 36 0 48 -4
48 -15 0 -17 38 -35 75 -35 33 0 75 -20 75 -37 0 -9 14 -13 48 -13 39 0 49 -4
57 -22 8 -17 20 -24 50 -26 23 -2 54 -14 72 -28 17 -13 41 -24 52 -24 12 0 21
-4 21 -8 0 -12 56 -42 78 -42 10 0 31 -9 46 -21 l26 -20 0 -404 0 -404 -36
-10 c-33 -9 -41 -7 -80 21 -30 21 -59 32 -94 36 -34 3 -58 12 -75 28 -19 17
-38 24 -66 24 -32 0 -42 4 -46 19 -5 21 -31 31 -81 31 -22 0 -41 9 -58 25 -19
19 -35 25 -69 25 -34 0 -45 4 -45 15 0 20 -40 35 -90 35 -21 0 -45 6 -52 13
-23 23 -55 37 -88 37 -20 0 -40 9 -56 25 -15 15 -36 25 -54 25 -28 0 -60 22
-60 41 0 5 -11 9 -24 9 -14 0 -37 11 -53 23 -15 13 -46 27 -68 30 -22 4 -46
14 -53 24 -6 9 -23 19 -37 20 -14 2 -46 15 -72 28 -25 14 -56 25 -69 25 -32 0
-74 21 -74 37 0 7 -11 13 -25 13 -14 0 -25 4 -25 10 0 5 -12 13 -27 17 -35 9
-30 8 -78 18 -22 4 -54 18 -72 31 -19 14 -45 24 -66 24 -22 0 -43 8 -61 25
-15 14 -36 25 -47 25 -11 0 -40 11 -63 24 -24 13 -59 26 -77 27 -19 2 -44 10
-56 17 -13 8 -44 16 -70 17 -57 4 -83 -14 -83 -56 0 -37 -20 -79 -37 -79 -7 0
-13 -10 -13 -23 0 -13 -9 -26 -22 -32 -12 -6 -26 -24 -31 -41 -9 -31 -41 -54
-73 -54 -8 0 -30 -11 -48 -25 -18 -14 -41 -25 -50 -25 -9 0 -27 -9 -39 -20
-12 -12 -33 -23 -47 -26 -34 -7 -90 -35 -90 -46 0 -4 -10 -8 -23 -8 -12 0 -29
-9 -37 -20 -8 -12 -31 -23 -52 -27 -21 -3 -38 -9 -38 -14 0 -18 -33 -39 -61
-39 -17 0 -45 -11 -63 -25 -18 -14 -42 -25 -54 -25 -11 0 -23 -4 -27 -9 -6
-11 -63 -41 -77 -41 -6 0 -17 -9 -27 -21 -9 -11 -32 -24 -51 -28 -27 -5 -36
-12 -38 -31 -2 -14 -7 -29 -12 -35 -7 -10 -7 -23 5 -150 4 -35 1 -87 -7 -125
-12 -61 -14 -139 -8 -515 2 -100 2 -134 4 -255 0 -36 -4 -94 -9 -130 -5 -36
-10 -200 -11 -365 -2 -165 -3 -307 -4 -315 0 -8 3 -51 6 -95 9 -101 8 -150 -6
-248 -8 -66 -8 -81 5 -93 20 -20 19 -78 -1 -95 -12 -10 -14 -24 -9 -63 9 -67
9 -198 0 -262 -6 -39 -3 -57 8 -75 23 -35 27 -81 9 -101 -12 -14 -14 -46 -9
-195 14 -476 14 -577 -1 -613 -10 -24 -12 -53 -8 -95 8 -88 16 -304 14 -425
-3 -172 0 -321 7 -392 6 -57 4 -69 -9 -74 -9 -3 -16 -17 -16 -30 0 -19 -5 -24
-25 -24 -15 0 -25 6 -25 15 0 19 -31 35 -69 35 -17 0 -31 5 -31 11 0 5 -4 7
-10 4 -5 -3 -10 -1 -10 4 0 6 -7 11 -15 11 -8 0 -15 5 -15 10 0 6 -14 10 -31
10 -37 0 -69 16 -69 34 0 8 -16 15 -44 18 -24 3 -57 15 -73 26 -16 11 -41 24
-56 27 -15 4 -27 13 -27 20 0 15 -22 25 -57 25 -15 0 -36 11 -49 25 -13 14
-34 25 -48 25 -13 0 -31 6 -38 13 -18 17 -65 37 -88 37 -13 0 -20 7 -20 19 0
22 -19 31 -66 31 -21 0 -34 5 -34 13 0 16 -46 36 -93 39 -21 1 -41 7 -46 13
-18 24 -32 99 -26 139 6 34 4 44 -9 49 -17 7 -22 47 -6 47 6 0 10 7 10 15 0 8
5 24 12 34 9 15 9 28 -1 58 -13 42 -15 63 -6 108 4 17 0 49 -8 72 -12 36 -12
45 -1 60 15 20 19 99 5 108 -13 8 -12 115 2 142 7 16 7 33 0 56 -14 47 -5 579
10 604 4 7 1 25 -7 40 -8 16 -13 44 -11 63 1 19 -2 40 -7 47 -5 7 -6 22 -2 35
10 29 16 176 15 358 0 52 0 111 1 130 0 19 0 51 -1 70 -1 19 0 46 3 60 18 80
18 90 4 90 -34 0 -38 22 -11 71 22 42 25 55 18 101 -4 29 -9 203 -10 386 -1
211 -6 336 -12 340 -27 18 -20 163 9 200 6 6 8 26 4 44 -3 17 -1 57 6 89 10
51 10 60 -5 77 -18 20 -23 77 -8 87 11 6 7 35 -9 66 -13 23 -15 204 -2 223 3
6 8 52 9 101 4 110 4 115 14 115 4 0 9 54 11 120 3 103 6 121 22 133 14 10 20
30 23 73 4 56 29 124 45 124 5 0 8 15 8 33 1 34 19 67 39 67 6 0 11 15 11 34
0 33 21 66 41 66 5 0 9 9 9 19 0 11 11 32 25 47 14 15 25 33 25 40 0 7 11 21
24 31 13 11 25 28 27 39 3 10 13 20 24 22 12 2 25 13 30 24 6 13 24 26 43 30
18 5 38 17 45 28 6 11 20 20 29 20 9 0 28 11 42 25 15 15 37 25 53 25 20 0 31
7 38 23 8 17 20 23 50 25 31 2 43 8 50 25 8 17 20 23 52 25 34 3 42 7 45 25 2
13 11 23 23 25 39 6 75 25 75 38 0 8 9 14 20 14 26 0 80 27 80 40 0 6 9 10 21
10 11 0 35 11 53 25 18 14 42 25 53 25 11 0 30 11 43 25 13 14 34 25 46 25 13
0 34 11 48 25 16 16 36 25 56 25 20 0 30 5 30 15 0 18 31 35 65 35 18 0 29 6
32 19 3 11 23 26 50 36 24 10 47 23 50 31 3 8 14 14 25 14 11 0 29 11 40 25
11 14 26 25 33 25 8 0 25 11 39 25 14 14 32 25 40 25 8 0 26 11 40 25 16 15
36 25 55 25 16 0 31 4 33 8 7 19 63 38 91 31 15 -4 27 -5 27 -2z m-6696 -1246
c3 -5 -2 -15 -12 -22 -15 -12 -16 -12 -5 2 7 9 10 19 6 22 -3 4 -4 7 0 7 3 0
8 -4 11 -9z m5760 -5423 c-9 -14 -23 2 -17 18 4 12 8 13 14 3 4 -7 5 -17 3
-21z m-7201 -222 c-4 -16 -2 -17 5 -7 7 10 10 7 10 -13 0 -14 -7 -31 -14 -37
-8 -6 -11 -16 -7 -23 3 -6 2 -7 -2 -3 -5 4 -10 13 -11 20 -14 64 -14 72 -3 57
9 -12 10 -11 6 6 -2 12 1 21 8 21 7 0 10 -9 8 -21z m19064 -1599 c2 -2 5 -289
7 -638 2 -349 7 -647 11 -664 4 -16 13 -37 21 -45 19 -23 13 -137 -10 -153
-10 -7 -19 -31 -22 -57 -7 -54 -23 -90 -40 -90 -8 0 -14 -16 -16 -42 -2 -33
-8 -45 -25 -53 -17 -7 -23 -19 -25 -50 -2 -30 -9 -42 -25 -49 -14 -7 -23 -22
-27 -47 -3 -21 -12 -44 -20 -51 -7 -8 -17 -24 -20 -36 -4 -12 -16 -22 -26 -22
-11 0 -30 -11 -44 -25 -15 -15 -36 -25 -54 -25 -21 0 -31 -6 -35 -20 -3 -11
-13 -23 -24 -27 -10 -3 -31 -17 -46 -30 -16 -13 -39 -23 -53 -23 -17 0 -24 -6
-24 -20 0 -13 -9 -22 -27 -26 -55 -12 -63 -16 -73 -35 -8 -14 -21 -19 -54 -19
-32 0 -48 -6 -66 -25 -13 -14 -35 -25 -49 -25 -18 0 -30 -8 -36 -22 -8 -18
-20 -24 -52 -26 -24 -2 -43 -8 -43 -14 0 -18 -34 -37 -67 -38 -23 0 -33 -6
-38 -20 -4 -12 -21 -24 -47 -30 -26 -7 -42 -18 -45 -31 -4 -13 -14 -19 -32
-19 -14 0 -38 -11 -53 -25 -15 -14 -35 -25 -44 -25 -9 0 -32 -11 -50 -25 -18
-14 -40 -25 -49 -25 -10 0 -26 -11 -37 -25 -14 -18 -29 -25 -54 -25 -24 0 -34
-5 -34 -15 0 -16 -25 -29 -72 -39 -16 -4 -28 -13 -28 -21 0 -8 -17 -19 -40
-25 -22 -6 -46 -20 -53 -30 -7 -12 -23 -20 -38 -20 -14 0 -38 -11 -53 -25 -15
-14 -34 -25 -42 -25 -7 0 -23 -9 -34 -20 -11 -11 -32 -22 -47 -26 -36 -7 -93
-36 -93 -46 0 -5 -9 -8 -21 -8 -12 0 -34 -11 -51 -25 -16 -14 -40 -25 -54 -25
-13 0 -24 -4 -24 -9 0 -19 -32 -41 -61 -41 -22 0 -32 -6 -39 -25 -8 -21 -16
-25 -51 -25 -33 0 -42 -4 -46 -20 -3 -12 -17 -23 -32 -26 -46 -10 -71 -23 -71
-39 0 -8 -9 -15 -19 -15 -22 0 -81 -31 -81 -42 0 -5 -14 -8 -31 -8 -38 0 -69
-16 -69 -35 0 -10 -11 -15 -34 -15 -47 0 -66 -9 -66 -31 0 -15 -7 -19 -31 -19
-38 0 -69 -16 -69 -35 0 -9 -10 -15 -25 -15 -33 0 -75 -20 -75 -37 0 -7 -9
-13 -20 -13 -10 0 -30 -11 -44 -25 -15 -15 -37 -25 -53 -25 -20 0 -31 -7 -38
-22 -7 -17 -20 -24 -48 -26 -30 -3 -40 -9 -47 -28 -8 -20 -16 -24 -52 -24 -35
0 -45 -4 -53 -22 -6 -13 -19 -24 -30 -26 -50 -7 -63 -13 -67 -30 -3 -11 -18
-21 -34 -25 -16 -3 -39 -15 -51 -26 -12 -12 -29 -21 -38 -21 -9 0 -26 -9 -38
-20 -12 -12 -33 -23 -47 -26 -33 -7 -90 -36 -90 -46 0 -5 -12 -8 -27 -8 -42 0
-73 -11 -73 -25 0 -16 -23 -25 -63 -25 -24 0 -35 -6 -42 -22 -8 -18 -20 -24
-50 -26 -31 -2 -43 -8 -50 -25 -8 -18 -20 -23 -63 -25 -30 -2 -59 1 -65 7 -8
6 -11 55 -10 163 2 84 2 158 2 163 0 6 -2 144 -5 308 -6 294 -5 299 15 304 14
4 23 17 28 46 5 22 17 45 27 51 10 6 29 21 42 34 13 12 30 22 38 22 8 0 23 11
34 25 11 14 29 25 40 25 14 0 22 8 24 22 2 16 12 24 38 29 19 4 42 17 51 28
10 12 25 21 34 21 20 0 75 31 75 42 0 4 10 8 23 8 13 0 33 11 45 25 16 18 32
25 57 25 25 0 44 8 61 25 14 14 31 25 39 25 8 0 25 11 39 25 15 15 37 25 53
25 17 0 33 8 40 20 7 10 29 22 50 26 21 4 46 17 56 31 12 15 29 23 50 23 24 0
35 6 42 22 6 14 23 25 45 29 19 4 41 17 49 28 7 12 24 21 38 21 32 0 63 17 63
35 0 10 11 15 35 15 25 0 43 7 59 25 13 14 31 25 40 25 9 0 16 7 16 15 0 19
31 35 69 35 21 0 31 5 31 15 0 8 20 24 44 36 25 11 50 27 57 35 6 8 17 14 25
14 7 0 25 11 40 25 15 14 39 25 53 25 18 0 30 7 36 23 7 16 20 23 48 25 29 3
40 9 47 27 7 19 17 24 52 27 36 2 44 7 46 26 3 17 10 22 33 22 19 0 39 10 55
25 14 14 33 25 42 25 10 0 22 10 27 23 7 16 20 23 49 25 28 2 40 9 43 23 3 11
17 22 32 25 46 10 71 23 71 39 0 9 9 15 22 15 11 0 36 11 54 25 18 14 40 25
49 25 10 0 26 11 37 25 13 16 29 25 48 25 18 0 39 10 54 25 14 14 37 25 52 25
16 0 34 10 46 25 13 17 29 25 51 25 24 0 35 6 42 22 6 13 19 24 30 26 32 5 65
24 65 39 0 7 11 13 24 13 16 0 26 7 29 21 3 11 14 23 25 26 11 2 25 16 31 29
6 13 17 24 24 24 7 0 25 12 39 28 l27 27 5 270 c3 149 5 300 5 336 l0 66 47
36 c26 21 58 37 71 37 13 0 23 6 23 15 0 18 31 35 63 35 15 0 31 10 41 25 13
20 25 25 56 25 28 0 40 4 40 15 0 18 31 35 65 35 17 0 35 9 47 25 13 17 29 25
50 25 18 0 45 11 64 25 18 14 41 25 51 25 10 0 23 10 28 22 6 13 19 24 30 26
32 5 65 24 65 39 0 7 10 13 23 13 14 0 26 9 32 23 7 16 20 23 48 25 30 3 40 9
47 28 6 14 18 24 29 24 10 0 25 7 32 17 29 34 69 51 101 42 17 -4 32 -10 35
-12z m-19267 -4882 c0 -5 -5 -3 -10 5 -5 8 -10 20 -10 25 0 6 5 3 10 -5 5 -8
10 -19 10 -25z m3606 -297 c-18 -10 -39 -2 -31 12 3 4 15 6 26 3 19 -5 19 -7
5 -15z m18261 -285 c0 -10 -3 -10 -16 0 -12 10 -14 9 -8 -6 4 -11 3 -16 -3
-12 -6 3 -10 0 -11 -7 0 -10 -2 -10 -6 0 -2 6 -9 12 -14 12 -6 0 -8 -4 -5 -8
3 -5 -1 -9 -9 -9 -12 0 -12 3 -2 16 10 12 9 14 -6 8 -11 -4 -16 -3 -12 4 4 6
13 8 21 5 7 -3 15 -2 18 2 8 13 53 9 53 -5z m2788 -164 c-6 -45 -20 -55 -20
-14 0 18 3 31 8 28 4 -2 7 1 7 6 0 6 2 11 5 11 2 0 2 -14 0 -31z m59 19 c-6
-10 -5 -10 7 -1 22 18 36 2 36 -40 0 -28 -3 -34 -9 -23 -5 9 -7 25 -3 35 3 11
1 22 -4 26 -7 4 -8 -1 -4 -11 5 -13 3 -15 -7 -9 -8 5 -11 4 -6 -3 4 -6 4 -23
0 -37 -5 -20 -9 -23 -15 -13 -5 7 -9 8 -9 2 0 -6 -7 -11 -15 -11 -12 0 -12 3
-2 15 11 13 9 14 -13 2 -23 -12 -24 -12 -11 3 7 10 10 17 6 17 -4 0 -1 8 6 17
10 11 10 14 2 9 -15 -8 -16 -5 -7 18 3 9 17 16 31 16 17 0 22 -4 17 -12z m23
-80 c-3 -8 -6 -5 -6 6 -1 11 2 17 5 13 3 -3 4 -12 1 -19z m-24742 -42 c0 -19
-3 -37 -6 -40 -4 -5 -4 62 0 72 4 10 7 -4 6 -32z m23775 12 c0 -20 -16 -32
-25 -18 -3 5 -11 10 -16 10 -6 0 -7 -5 -3 -12 5 -7 3 -8 -5 -4 -7 5 -10 15 -7
25 4 9 -3 5 -14 -9 -21 -26 -21 -26 -25 5 -2 18 4 21 46 20 39 0 49 -3 49 -17z
m373 -46 c3 7 4 3 4 -9 -1 -25 -12 -21 -27 10 -10 20 -10 21 3 4 11 -14 16
-15 20 -5z m-2935 -305 c14 4 14 3 2 -5 -16 -12 -30 -7 -29 11 0 9 2 9 5 0 3
-7 13 -9 22 -6z m4348 -1452 c1 -9 -4 -11 -14 -7 -10 4 -12 7 -4 10 7 2 9 9 5
15 -3 7 -2 8 2 4 5 -4 10 -14 11 -22z m1 -40 c0 -20 -4 -19 -17 5 -8 15 -8 18
3 14 8 -3 14 -11 14 -19z m0 -40 c0 -8 -4 -12 -9 -9 -5 3 -6 10 -3 15 9 13 12
11 12 -6z m-2 -104 c3 -5 2 -12 -3 -15 -5 -3 -9 1 -9 9 0 17 3 19 12 6z m1
-516 c1 -8 -2 -13 -7 -9 -5 3 -9 12 -9 21 0 19 13 9 16 -12z m-18796 -2039 c0
-11 -19 -15 -25 -6 -3 5 1 10 9 10 9 0 16 -2 16 -4z"/>
<path d="M14850 16188 c0 -15 -114 -88 -135 -88 -25 0 -65 -23 -65 -37 0 -7
-10 -13 -23 -13 -12 0 -28 -9 -35 -20 -7 -12 -28 -22 -52 -26 -25 -4 -40 -12
-40 -21 0 -15 -40 -33 -76 -33 -13 0 -24 -5 -24 -11 0 -11 -31 -46 -37 -41 -2
1 -14 2 -28 2 -18 0 -28 -7 -35 -25 -8 -20 -16 -25 -45 -25 -25 0 -41 -7 -57
-25 -16 -19 -32 -25 -60 -25 -31 0 -38 -4 -38 -20 0 -19 -14 -26 -70 -32 -17
-2 -26 -10 -28 -25 -2 -15 -10 -23 -22 -23 -11 0 -30 -11 -44 -25 -14 -14 -37
-25 -51 -25 -18 0 -28 -7 -35 -25 -8 -20 -16 -25 -44 -25 -19 0 -41 -6 -48
-13 -20 -21 -54 -37 -77 -37 -11 0 -25 -9 -31 -20 -6 -12 -29 -25 -55 -31 -25
-6 -45 -17 -45 -24 0 -8 -15 -16 -32 -20 -58 -12 -68 -16 -68 -30 0 -14 -15
-20 -65 -27 -11 -2 -24 -13 -30 -26 -6 -13 -19 -22 -32 -22 -13 0 -23 -4 -23
-8 0 -12 -56 -42 -79 -42 -12 0 -21 -3 -21 -7 0 -12 -59 -43 -81 -43 -12 0
-19 -7 -19 -20 0 -15 -9 -22 -30 -26 -16 -4 -41 -17 -55 -30 -14 -13 -33 -24
-41 -24 -8 0 -19 -11 -24 -25 -6 -15 -17 -25 -30 -25 -15 0 -20 -7 -20 -25 0
-22 4 -25 34 -25 33 0 66 -21 66 -41 0 -5 14 -9 30 -9 20 0 40 -9 56 -25 15
-15 36 -25 54 -25 19 0 35 -9 48 -25 14 -17 30 -25 51 -25 21 0 40 -9 55 -25
18 -19 33 -25 65 -25 29 0 41 -4 41 -15 0 -18 31 -35 64 -35 14 0 36 -11 50
-25 16 -16 36 -25 56 -25 18 0 30 -5 30 -13 0 -18 43 -37 81 -37 19 0 37 -9
51 -25 12 -14 30 -25 40 -25 11 0 34 -11 52 -25 18 -14 45 -25 60 -25 15 0 38
-11 52 -25 15 -15 36 -25 53 -25 16 0 37 -10 51 -25 14 -15 35 -25 51 -25 17
0 35 -9 47 -25 11 -14 30 -25 44 -25 13 0 35 -11 50 -25 20 -18 38 -25 68 -25
30 0 42 -5 47 -17 9 -26 23 -33 66 -33 26 0 37 -4 37 -15 0 -17 39 -35 76 -35
13 0 24 -6 24 -13 0 -15 41 -37 70 -37 10 0 23 -6 27 -14 11 -19 48 -36 77
-36 14 0 26 -5 26 -11 0 -5 21 -19 46 -31 26 -11 49 -28 51 -39 4 -13 14 -19
35 -19 18 0 39 -10 54 -25 14 -14 31 -25 39 -25 8 0 25 -11 39 -25 22 -22 33
-25 101 -25 68 0 77 2 82 20 3 10 15 22 27 26 26 8 76 53 76 69 0 7 9 22 20
35 24 28 24 23 -1 95 -20 57 -21 71 -13 315 7 212 8 414 5 830 0 25 1 88 3
140 1 52 -2 142 -6 200 -5 58 -5 137 0 176 4 39 5 77 1 85 -4 8 -10 22 -13 32
-4 11 -15 21 -26 24 -13 3 -20 14 -20 28 0 18 -7 24 -39 29 -22 3 -46 14 -53
24 -7 11 -29 21 -49 25 -20 3 -56 15 -80 26 -50 24 -179 30 -179 9z"/>
<path d="M10750 14425 c-7 -18 -17 -25 -35 -25 -34 0 -65 -17 -65 -35 0 -8 -9
-15 -20 -15 -12 0 -22 -9 -25 -22 -3 -13 -7 -826 -8 -1808 -2 -1235 -6 -1791
-14 -1805 -19 -36 -25 -95 -12 -111 16 -19 24 -170 12 -203 -6 -14 -6 -46 -1
-75 6 -43 11 -134 9 -196 -1 -34 12 -106 21 -117 6 -7 27 -13 48 -13 43 0 140
-29 140 -42 0 -4 33 -8 73 -8 61 0 74 3 85 20 6 11 28 26 47 34 19 8 38 22 41
31 3 8 16 15 28 15 12 0 25 9 31 22 6 13 24 26 43 30 18 5 38 17 45 28 6 11
20 20 30 20 22 0 77 30 77 42 0 4 9 8 20 8 10 0 30 11 44 25 16 16 36 25 56
25 18 0 30 5 30 13 0 14 27 31 68 42 12 4 27 15 32 26 6 10 21 19 33 19 39 0
65 11 70 30 4 14 16 20 48 22 37 2 45 7 47 26 2 14 10 22 24 22 11 0 29 11 40
25 14 18 29 25 53 25 27 0 34 4 37 23 2 17 11 23 35 25 20 2 40 13 52 28 10
13 27 24 36 24 9 0 26 11 36 24 12 15 32 26 52 28 24 2 33 8 35 26 3 18 10 22
37 22 46 0 65 9 65 31 0 16 8 19 49 19 44 0 50 3 53 22 2 14 11 24 23 26 39 6
75 25 75 38 0 8 10 14 25 14 33 0 75 20 75 37 0 9 15 13 49 13 43 0 50 3 53
22 2 15 13 24 34 30 17 4 39 17 49 28 10 11 29 20 42 20 16 0 23 6 23 20 0 13
8 21 25 25 14 3 36 7 50 10 17 4 25 12 25 25 0 14 7 20 23 20 13 0 34 11 47
25 13 14 34 25 48 25 14 0 32 11 44 25 12 15 30 25 45 25 14 0 41 11 59 25 18
14 44 25 58 25 18 0 25 6 28 22 2 13 12 24 25 28 20 5 70 41 114 83 11 9 26
17 35 17 9 0 24 10 33 22 13 15 31 22 64 24 39 2 50 -1 66 -22 14 -18 28 -24
59 -24 30 0 48 -7 66 -25 17 -17 36 -25 60 -25 24 0 43 -8 60 -25 16 -15 36
-25 55 -25 28 0 61 -21 61 -40 0 -4 28 -10 61 -12 48 -3 66 -9 80 -26 13 -17
28 -22 62 -22 27 0 49 -6 57 -15 7 -8 19 -15 26 -15 8 0 14 -4 14 -10 0 -11
42 -13 78 -4 13 4 22 14 22 25 0 14 7 19 29 19 16 0 39 10 55 25 15 14 34 25
42 25 9 0 30 11 48 25 18 14 42 25 52 25 11 0 24 10 29 23 7 16 20 23 48 25
30 3 40 9 47 28 8 20 16 24 54 24 39 0 45 3 48 23 2 15 11 23 28 25 52 6 68
12 73 32 4 16 13 20 46 20 35 0 43 4 51 25 7 19 17 25 39 25 42 0 61 9 61 31
0 15 7 19 38 19 42 0 56 7 65 33 5 12 17 17 47 17 34 0 42 4 50 25 8 21 16 25
52 25 35 0 45 4 53 23 8 17 20 23 52 25 34 3 42 7 45 25 2 18 11 23 48 27 37
4 46 9 48 28 2 16 10 22 27 22 17 0 25 6 27 23 2 14 11 23 26 25 19 3 22 9 22
52 0 42 -3 49 -24 54 -13 3 -26 15 -29 26 -4 16 -13 20 -46 20 -35 0 -42 4
-47 24 -5 21 -13 25 -52 28 -40 3 -47 6 -50 25 -3 18 -11 22 -45 25 -32 2 -44
8 -52 26 -7 16 -18 22 -42 22 -30 0 -63 21 -63 41 0 5 -11 9 -25 9 -14 0 -25
4 -25 9 0 20 -33 41 -64 41 -22 0 -40 8 -56 25 -14 15 -35 25 -52 25 -18 0
-28 5 -28 15 0 19 -31 35 -67 35 -20 0 -31 7 -38 23 -7 16 -20 23 -48 25 -23
2 -46 12 -62 28 -15 15 -36 24 -55 24 -18 0 -30 5 -30 13 0 17 -42 37 -75 37
-14 0 -25 6 -25 13 0 16 -41 37 -71 37 -12 0 -23 8 -26 20 -5 20 -21 26 -73
32 -17 2 -26 10 -28 26 -3 18 -10 22 -37 22 -24 0 -39 7 -53 25 -11 14 -29 25
-41 25 -12 0 -21 6 -21 13 0 17 -42 37 -75 37 -14 0 -25 6 -25 13 0 13 -53 37
-81 37 -8 0 -19 10 -24 23 -7 16 -20 23 -49 25 -22 2 -53 14 -71 28 -18 13
-42 24 -53 24 -12 0 -22 4 -22 10 0 13 -47 36 -93 44 -21 4 -43 16 -50 26 -6
11 -20 20 -31 20 -10 0 -33 11 -51 24 -18 14 -49 26 -71 28 -29 2 -42 9 -49
26 -6 14 -18 22 -35 22 -14 0 -37 11 -52 25 -15 14 -39 25 -53 25 -33 0 -65
17 -65 34 0 8 -16 16 -40 20 -24 4 -45 14 -52 26 -8 12 -24 20 -41 20 -16 0
-38 10 -53 25 -14 14 -35 25 -48 25 -13 0 -35 11 -50 25 -15 14 -35 25 -46 25
-10 0 -32 11 -48 25 -17 14 -38 25 -47 25 -10 0 -33 11 -51 25 -18 14 -40 25
-49 25 -10 0 -30 11 -47 25 -16 14 -40 25 -54 25 -13 0 -24 4 -24 9 0 19 -32
41 -60 41 -19 0 -33 7 -40 20 -6 10 -29 24 -51 30 -27 7 -43 18 -46 31 -4 13
-14 19 -35 19 -18 0 -39 10 -54 25 -14 14 -36 25 -50 25 -14 0 -36 11 -49 24
-15 15 -39 26 -62 28 -27 3 -41 10 -48 25 -7 17 -20 23 -50 25 -30 2 -42 8
-50 26 -8 18 -18 22 -51 22 -33 0 -45 5 -58 25 -12 19 -25 25 -52 25 -24 0
-37 5 -41 18 -9 24 -23 32 -60 32 -31 0 -93 28 -93 43 0 4 -11 7 -25 7 -15 0
-25 6 -25 15 0 17 -30 35 -59 35 -12 0 -31 11 -43 25 -12 14 -32 25 -44 25
-19 0 -118 44 -150 67 -28 21 -56 33 -75 33 -12 0 -23 8 -26 20 -4 13 -18 22
-47 27 -28 6 -44 15 -51 30 -7 17 -20 23 -50 25 -30 2 -42 8 -50 26 -6 14 -18
22 -36 22 -14 0 -36 11 -49 25 -22 23 -30 25 -117 25 -91 0 -94 -1 -103 -25z
m3744 -2244 c3 -5 -1 -14 -8 -20 -16 -13 -32 2 -21 19 8 12 22 13 29 1z"/>
<path d="M3611 20646 c-9 -11 -9 -16 1 -22 7 -4 10 -4 6 1 -4 4 -3 14 3 22 6
7 9 13 6 13 -2 0 -10 -6 -16 -14z"/>
<path d="M217 11873 c-3 -5 -2 -15 2 -22 7 -10 10 -10 16 -1 4 6 3 16 -3 22
-5 5 -12 6 -15 1z"/>
<path d="M23715 4579 c-4 -6 -5 -12 -2 -15 2 -3 7 2 10 11 7 17 1 20 -8 4z"/>
<path d="M23575 25591 c-3 -5 -2 -12 3 -15 5 -3 9 1 9 9 0 17 -3 19 -12 6z"/>
<path d="M6 1895 c-3 -9 1 -23 9 -32 14 -14 15 -12 11 12 -6 35 -12 40 -20 20z"/>
<path d="M17953 13 c0 -9 4 -10 14 -2 7 6 13 12 13 14 0 1 -6 2 -13 2 -8 0
-14 -6 -14 -14z"/>
<path d="M5806 8 c3 -5 10 -6 15 -3 13 9 11 12 -6 12 -8 0 -12 -4 -9 -9z"/>
</g>
</svg>
